<?xml version="1.0" encoding="UTF-8"?>
<svg id="Layer_1" data-name="Layer 1" xmlns="http://www.w3.org/2000/svg" viewBox="0 0 156 158">
  <defs>
    <style>
      .cls-1 {
        fill: #fefefe;
      }
    </style>
  </defs>
  <path class="cls-1" d="M0,79v-1l43.98-25.52v51.89S0,79,0,79ZM36.86,91.94l.08-27.4-23.88,13.94,23.81,13.46Z"/>
  <path class="cls-1" d="M79,158h-2c-.31-2.39-1.63-4.57-3.24-6.8l-20.48-36.9,50.33-.31-24.61,44.02ZM79.11,120.13c-4.94,1.35-8.96,1-14.88-.31l13.87,25.06c4.99-8.24,8.49-15.84,13.74-23.25,1.73-2.45-12.33-1.61-12.73-1.51Z"/>
  <path class="cls-1" d="M156,78v1l-42.93,24.7-.13-47.53-.91-1.65c-.14-.25.99-1.17,1.55-1.48l42.42,24.96ZM143.41,78.4l-24.35-13.91-.02,27.63,24.37-13.72Z"/>
  <path class="cls-1" d="M99.64,56.89c4.11,4.38,7.24,8.43,8.53,13.99,4.18,18.05-6.4,35.71-23.98,38.88-18.08,3.26-34.69-8.89-36.32-27.74-.82-9.48,2.21-18.3,8.59-24.98,11.19-11.73,32.1-11.98,43.18-.16ZM97.11,93.41c5.6-7.19,6.57-16.6,2.33-24.94-3.28-6.45-10.06-12.2-18.74-13.23-11.25-1.33-21.69,6.32-24.76,16.35-3.26,10.66.77,22.55,10.15,28.04,10.99,6.44,23.05,4.02,31.02-6.21Z"/>
  <path class="cls-1" d="M99.81,44.1l-42.38.08c-.99,0-2.1,1.54-2.95.83-.48-.4-.98-2.01-.42-3.01L77.93.04l24.51,41.5c.62,1.05.5,1.72.17,2.44-.73,1.62-1.45.11-2.81.11ZM91.71,37.34l-13.66-24.33-13.57,25c9.66-.47,18.09.86,27.24-.68Z"/>
  <path class="cls-1" d="M135.22,136.18l-34.06-8.69,24.34-24.39,9.72,33.08ZM125.09,126.61c-.82-5.67-1.39-7.48-2.94-11.41-2.37,4.02-4.67,5.79-7.33,8.49l10.27,2.91Z"/>
  <path class="cls-1" d="M55.4,30.84l-24.77,24.97-9.05-31.84c.88-1.46,2.1-.93,3.45-1.07,9.88,3.08,19.14,5.37,30.38,7.94ZM40.62,34.54c-2.59-1.19-5.45-1.45-9.45-2.83l2.44,10.31c.02,1.7,9.34-6.4,7.01-7.48Z"/>
  <path class="cls-1" d="M54.54,127.27l-32.93,9.2,8.72-33.66,24.21,24.46ZM42.11,123.83l-7.86-8.03c-1.85,3.47-2.34,6.51-2.22,10.31,3.65-.55,6.66-.57,10.08-2.29Z"/>
  <path class="cls-1" d="M126.96,51.46c-.07,1.63.07,2.91-.58,3.27-.69.39-2.07.57-2.8-.38-6.57-8.58-14.22-15.46-22.31-23.27l33.64-9.04-7.96,29.42ZM122.35,42.58c1.32-4.35,2.76-6.74,2.74-10.75-3.9.67-6.88,1.6-10.69,2.8,2.88,3.31,4.65,5.12,7.96,7.95Z"/>
</svg>