<?xml version="1.0" encoding="UTF-8"?>
<svg id="Layer_1" data-name="Layer 1" xmlns="http://www.w3.org/2000/svg" viewBox="0 0 800 800">
  <defs>
    <style>
      .cls-1 {
        fill: #fefefe;
      }
    </style>
  </defs>
  <path class="cls-1" d="M575.21,494.62c19.61-10.53,52.37-29.35,53.54-53.85.71-14.92-14.33-25.64-28.02-27.37-32.32-4.07-72.36,17.58-94.76,39.57l-30.85,30.29c-6.66-4.8-19.31-17.24-18.95-25.27.17-3.74,4.11-6.66,6.63-9.27,19.75-20.43,41.64-38.03,67.34-50.52,31.03-15.08,64.2-24.44,98.72-22.9,27.46,1.22,53.62,4.04,80.16,9.62,2.82.59,17.28,3.91,16.71,6.69-25.19,49.53-95.23,135.7-155.17,139.51,2.46-8.44,3.68-16.17,4.08-24.46l.58-12.04Z"/>
  <path class="cls-1" d="M403.51,582.44c1.38-22.57,5.53-60.43,20.86-78.61,3.88,4.41,8.59,7.8,12.11,12.61,8.74,11.91,12.9,7.22,9.14,19.15-3.79,12.04-7.09,30.3-5.01,42.66,1.34,7.94,4.23,14.45,10.75,19.64,8.35,6.65,19.51,5.87,29.22.54,19.02-10.43,34.39-26.91,42.43-47.23,12-30.32,9.46-68.28.05-99.84,8.48-6.18,17.61-12.05,28.3-16.72,35.53,44.87-3.64,150.24-37.54,187.01l-7.28,7.9c-25.06,27.18-56.52,53.47-89.31,70.81-3.83-5.69-5.2-11.7-6.69-18.03-6.87-29.1-8.87-70.01-7.04-99.91Z"/>
  <path class="cls-1" d="M179.57,462.42c17.87,21.77,49.25,38.48,76.52,42.92,22.07,3.6,43.69,1.09,64.05-8.59,6.71,8.9,12.13,18.14,16.81,28.14-6.59,4.07-13.58,5.81-21.03,8.18-63.05,20.04-128.35-12.2-174.56-54.62-24.97-22.93-52.98-57.14-69.24-88.26,3.43.27,6.36-2.06,10.01-3.06,27.21-7.41,63.13-9.96,91.5-8.94,25.82.92,74.62,3.73,94.74,20.44-1.5,3.04-4.24,3.73-6.27,5.48l-9.68,8.36c-3.44,2.97-6.26,6.24-9.63,9.25-15.98-5.6-36.51-10.22-53.28-6.36-8.96,2.06-17.17,7.74-19.1,16.77-2.39,11.19,2.13,21.75,9.14,30.28Z"/>
  <path class="cls-1" d="M318.73,654.66c-23.87-20.58-75-77.79-77.56-110.62,11.68,3.16,22.59,4.52,34.26,4.38,9.54,16.45,34.75,51.4,53.67,53.96,6.39.86,11.98-.15,16.86-4.49,10.74-9.56,16.39-23.29,14.98-37.96-2.21-22.97-18.69-50.75-33.09-67.72l-19.34-22.79-19.74-20.3c6.38-8.45,13.88-15.51,23.5-20.04,4.18-1.96,21.37,16.88,24.29,20.38,26,31.16,52.02,73.63,57.29,114.52,1.87,14.5,1.31,40.63.62,55.49l-.89,19.14c-.54,11.48-5.4,51.6-12.93,61.55-1.99-2.27-5.03-2.79-7.56-4.32l-6.82-4.14-11.31-7.66c-6.19-4.19-12.01-8.51-17.6-13.33l-18.62-16.05Z"/>
  <path class="cls-1" d="M266.83,475.19c-1.88,7.53-1.83,14.43-3.11,21.79-10.16-.32-19.96-2.65-29.47-7.53-2.49-34.8,14.37-66.55,43.44-85.97,22.48-15.02,53.33-26.35,80.73-27.26,1.49,4.67-.17,8.5-.24,12.86l-.27,16.67c-40.31,2.09-80.86,28.52-91.09,69.43Z"/>
  <path class="cls-1" d="M521.87,507.08c1.6,11.04-1.59,19.62-4.17,31.28-38.46.81-70.07-14.92-90.8-48.39-12.51-20.2-19.98-42.7-23.5-66.31-.54-3.62-.69-6.77-.14-11.12l28.58,1.25c1.61,49.9,38.28,94.67,90.04,93.29Z"/>
  <path class="cls-1" d="M375.45,484.16c-5.08-8.45-19.41-26.82-19.98-34.38-.53-6.96,2.78-13.76,4.9-20.38,5.27-16.45,8.44-32.59,8.82-50.06,9.96,1.08,19.05,1.69,28.47,1.7,6.88,13.37-13.47,83.73-18.57,95.05l-3.64,8.07Z"/>
  <path class="cls-1" d="M479.68,415.68c-4.66-2.17-9.21-2.21-13.75-3.69-23.05-7.52-36.04-7.71-59.77-9.16-.92-3.43.63-6.52.67-9.9l.23-18.75c21.41-2.8,62.25,6.5,82.6,13.02,7.55,2.42,14.38,4.78,20.39,9.51-11.86,6.34-19.28,13.52-30.37,18.97Z"/>
  <path class="cls-1" d="M81.34,352.24c3.53,7.53,15.37,12.5,7.71,16.7-4.55-2.27-5.6-7.38-10.14-10.3-.93,1.49-2.22,2.76-3.15,4.88,1.56.82,1.82-1.12,3.4-1.72,3.13,2.73,5.79,5.31,8.19,9.87l-23.51.43c-4.07-5.02-8.5-9.35-12.26-14.61-1.19-1.66-1.83-3.11-4.24-4.46,2-1.88,3.73-.97,5.88-.86.53.03,10.63,11.49,11.14,12.87,2.15-2.12,4.51-3.11,3.47-6.14l-3.58,3.25c-2.39-3.89-4.95-6.37-8.36-9.92l25.46.02ZM75.04,367.59c-3.2-2.53-3.63-4.29-2.14-6.71,1.32-2.15,3.71-2.96,4.34-5.72-3.22-.11-5.93-.79-8.83.51,1.59,2.25,4.74,3.67,3.28,5.89s-3.87,3.53-4.62,6.38c2.99-.09,5.49.51,7.98-.36Z"/>
  <path class="cls-1" d="M735.83,337.93c2.44,4.1,5.26,6.49,8.39,10.05-8.88-.46-17.22.93-25.47-.58-3.9-6.79-15.34-12.53-7.77-16.35,4.51,2.31,5.58,7.36,10.12,10.31.92-1.5,2.22-2.76,3.15-4.88-1.57-.81-1.8,1.11-3.41,1.72-3.29-2.94-6.33-5.84-8.16-10.14l23.48-.13,11.9,14c1.44,1.69,1.89,3.65,4.63,5.01-2.05,1.93-3.74,1.01-5.91.88-1.56-.09-2.27-2.4-3.6-4.01-2.54-3.08-5.57-4.9-7.41-8.88-1.96,1.75-4.53,2.94-3.66,6.13,1.48-.61,1.73-1.98,3.71-3.14ZM731.46,344.35c-2-2.78-4.52-3.88-3.13-5.94,1.51-2.23,3.83-3.51,4.61-6.36-2.98.06-5.51-.47-7.98.32,1.36,1.66,3.33,2.58,2.98,4.45-.61,3.24-3.21,4.46-5.55,7.55,3.04.98,6.26,1.09,9.06-.04Z"/>
  <path class="cls-1" d="M80.51,350.13l-23.84-.24c1.96-4.18,4.99-7.81,8.5-9.96.81.87,1.06,1.89,1.39,2.06.38.2,1.32-.03,1.48-.52.41-1.29-1.53-2.19-3.02-4.06-1.84-2.3-11.24,17.77-17.27,11.83l15.48-19.2,24.27.05-7.79,9.99-3.52-3.21c-1.03,3.04,1.33,4.07,3.45,6.09,2.28-3.62,5.65-7.16,9.36-10.15,1.38.67,2.58,3.56,1.69,4.66l-10.17,12.65ZM76.83,345.9l-5.15-7.7c1.03-2.18,3.32-2.6,3.49-5.08-3.29-.17-6.06-.3-9.27.1,2.16,2.81,5.53,4.96,6.01,8.65.22,1.71-2.54,2.49-2.97,3.93,2.88.39,5.22.24,7.88.1ZM78.23,333.21c-1,1.12.25,2.06,1.15,1.83.37-.09.37-.47,1.11-.98.56-.38.59-1.01-.05-1.03-.92-.02-1.76-.32-2.21.18Z"/>
  <path class="cls-1" d="M737.02,369.85l-24.51.07,7.79-10.01,3.52,3.21c1.03-3.05-1.34-4.03-3.44-6.12-2.41,3.89-5.51,6.83-9.46,10.4-6.12-4.73,5.74-12.06,8.76-17.56l23.64.3c.4,1.38-10.1,14.29-9.49,8.44.08-.76-2.19-.93-1.83.36.56,1.96,2.57,2.84,3.68,4.2,4-4.02,11.4-17.1,16.67-12.42l-15.34,19.14ZM734.1,366.8c-2.17-2.85-5.54-4.97-6.01-8.67-.22-1.71,2.53-2.49,2.97-3.92-2.87-.38-5.21-.26-8.06-.07,1.29,2.64,3.84,4.3,4.91,7.03.8,2.05-2.37,2.97-3.41,5.29,3.2,1.06,6.18.54,9.61.35ZM719.86,365.47c-1.54,1.61.03,1.58.7,1.59,1.49.03,1.84-.87,1.42-1.59-.39-.65-1.25-.91-2.12,0Z"/>
  <path class="cls-1" d="M509.02,359.07c27.11.96,16.66-2.99,24.44-6.86,1.3-.65,4.16,2.11,3.28,3.27-2.46,3.24-5.57,5.25-7.61,8.64l-25.14-.13v-28.01s22.85.13,22.85.13c1.08,0,2.62.76,3.09,1.42.63.88-.16,2-.8,3-1.09,1.7-15.45-.24-20.12.43v18.11Z"/>
  <path class="cls-1" d="M305.01,359.04c27.01,1.06,16.75-3.01,24.45-6.83,1.31-.65,4.16,2.11,3.28,3.27-2.46,3.24-5.57,5.25-7.61,8.64l-25.14-.12v-28.05c5.83,1.42,31.43-3.47,25.21,4.61-1.27,1.65-15.43-.25-20.25.42l.06,18.07Z"/>
  <path class="cls-1" d="M220.31,358.52l7.66-6.37c.73-.61,2.95,1.88,3.04,3.02l-8.32,8.76-24.7.09v-28.06c5.83,1.43,31.43-3.47,25.21,4.61-1.28,1.66-15.47-.25-20.19.42l.02,18.1c5.72-.6,13.09,2.93,17.28-.56Z"/>
  <path class="cls-1" d="M407.02,359.07c27.11.96,16.66-2.99,24.44-6.86,1.3-.65,4.16,2.11,3.28,3.27-2.46,3.24-5.57,5.25-7.61,8.64l-25.14-.13v-28.01s22.85.13,22.85.13c1.08,0,2.62.76,3.09,1.42.63.88-.16,2-.8,3-1.09,1.7-15.45-.24-20.12.43v18.11Z"/>
  <path class="cls-1" d="M468.07,348c-2.87-1.58,5.56-11.73,9.03-11.78l22.89-.27v28.11c-4.22-1.19-31.86,2.89-25.66-4.19,1.51-1.72,2.5-1.33,4.67-1.09,5.38.62,10.47-.02,15.98.24v-18.11c-16.93,1.23-15.33-4.09-24.89,8.06-.82.24-1.56-1.06-2.03-.98Z"/>
  <path class="cls-1" d="M628.3,358.5l7.67-6.36c.71-.59,2.99,1.87,3.07,3.11-2.34,2.32-5.46,6.45-8.41,8.35l-24.62.47v-28.12c6.04,1.46,31.26-3.5,25.2,4.61-1.37,1.83-15.49-.64-21.14.77,1.26,5.87,1.08,10.83.76,17.46,5.42.03,13.25,3.22,17.48-.29Z"/>
  <path class="cls-1" d="M392.91,358.98l.07-18.04c-14.5,1.07-16.23-3.79-24.48,7.94-1.14-.9-2.38-2.18-3.5-3.43l8.52-9.11,24.47-.37v28.07c-5.03-.89-27.02,2.03-26.83-2.55.19-4.32,15.77-1.8,21.74-2.51Z"/>
  <path class="cls-1" d="M118.31,358.5l7.66-6.36c.71-.59,2.99,1.87,3.07,3.11-2.33,2.32-5.46,6.45-8.41,8.35l-24.62.47v-28.09s22.84.14,22.84.14c1.08,0,2.62.76,3.09,1.42.64.89-.18,2-.79,3-1.17,1.9-15.85-.68-20.72.81.64,6.15.8,10.93.44,17.44,5.42.04,13.22,3.23,17.45-.29Z"/>
  <path class="cls-1" d="M699.33,358.59c-.91-9.6.94-11.25-.67-17.59l-17.32.14-7.79,7.92-2.53-4.13c3.32-2.16,6.16-8.7,10.09-8.74l22.9-.22-.06,28.05-25.49-.15c-1.01-.92-.75-4.54.84-4.6l20.03-.68Z"/>
  <path class="cls-1" d="M188.8,358.91c1.82-6.14-1.01-9.56,1.32-18.02-17.15,1.43-16.87-4.35-25.39,7.98l-4.14-2.89c3.63-2.87,5.19-8.66,9.76-9.49,7.77-1.39,15.6.08,23.63-.58l.02,28.14c-4.74-.89-27.26,2-26.83-2.56s15.72-1.64,21.63-2.57Z"/>
  <path class="cls-1" d="M595.87,358.71c3.93-.14-.76-12.71,2.31-17.79-17.34,1.35-16.89-4.36-25.52,8.01-1.33-.9-2.48-2.12-3.59-3.53,3.43-2.75,4.83-8.17,9.29-8.93,7.76-1.33,15.59.06,23.62-.56l.02,28.13c-4.97-.9-27.1,2.03-26.83-2.57.04-.65,1.42-2.1,2.24-2.13l18.45-.64Z"/>
  <path class="cls-1" d="M291.8,358.83c-.53-6.3-.7-11.3.09-17.59-17.28.25-17.2-3.85-25.57,7.88-1.61-1.25-2.26-2.5-3.2-3.75,3.33-2.71,4.8-8.12,9.24-8.89,7.76-1.33,15.59.05,23.62-.56l.02,28.08-23.02.04c-1.92,0-3.07-1.09-3.07-2.54s1.16-2.52,3.06-2.53l18.84-.15Z"/>
  <path class="cls-1" d="M535.43,364c-1.88,0-2.15-2.32-1.75-3.11,1.65-3.31,12.34-1.39,20.95-2.16,4.51-.41,9.5,1.42,13.97-.26,2.82-1.06,4.08-4.68,6.9-6.26,1.24-.7,4.14,2.15,3.26,3.29-2.34,3.06-5.31,4.85-6.94,8.51l-36.39-.02Z"/>
  <path class="cls-1" d="M567.8,341.2c-40.85-1.05-27.29-.44-37.18,7.52-1.25,1.01-4.3-2.16-3.51-3.46,2.2-3.63,5.37-5.96,8.23-9.24l33.49.06c1.08,0,2.65.84,3.11,1.45.68.9-.24,1.99-.78,2.99-.76,1.42-1.6.72-3.35.68Z"/>
  <path class="cls-1" d="M129.5,364.12c-2.45.01-3.4-.48-4.11-1.99-.47-.99.93-2.98,2.8-2.99l32.44-.27c2.82-2.13,4.29-5.42,7.37-6.72,1.01-.43,3.62,2.55,2.84,3.42-2.58,2.88-5.3,4.89-7.04,8.41l-34.3.14Z"/>
  <path class="cls-1" d="M334.3,340.83c-3.9,2.32-5.87,5.79-8.84,8.11-1.15-.99-1.65-1.86-2.01-2.85s.3-2.26,1.31-3.3l6.59-6.77,34.48.06c1.22,0,2.03,1.41,2.72,1.93.96.72-1.18,1.82-2.05,3.36l-32.21-.54Z"/>
  <path class="cls-1" d="M331.82,363.87c-1.29,0-2.48-1.02-2.85-1.44-.52-.59.87-1.56,1.24-2.22,1.2-2.17,2.72-1.39,4.8-1.38l29.63.12c2.7-2.36,4.44-5.34,7.32-6.9.96-.14,3.02,1.99,3.06,3.1l-8.35,8.82-34.84-.11Z"/>
  <path class="cls-1" d="M130.36,341.32c-3.83.27-5.76,5.88-7.98,7.2-1.16.16-4.29-1.88-3.37-3.45,2.09-3.56,5.63-5.68,8.32-9.07l33.5.08c1.07,0,2.65.84,3.11,1.45.68.9-.25,1.99-.78,2.98-.76,1.44-1.6.7-3.35.67-9.62-.18-19.01-.6-29.44.13Z"/>
  <path class="cls-1" d="M436.35,341.34c-3.74.31-5.93,5.74-8.19,7.66-1.12-.16-3.39-1.98-2.99-3.05,1.86-3.25,5.14-8.25,8.83-9.67,11.78-.57,23.14-.39,34.68-.04,2.12.06,1.19,3.42.57,4.3-1.17,1.67-2.17.53-4.26.55-9.4.07-18.49-.58-28.62.25Z"/>
  <path class="cls-1" d="M640.42,341.34c-3.87.29-5.95,5.77-8.25,7.66-1.23-.2-3.19-1.84-3.06-3.14,2.13-2.76,5.03-8.8,9.25-9.3,11.47-1.37,22.81-.25,34.21-.43.72-.01,2.31,1.8,2.28,2.46s-1.71,1.43-2.29,2.71c-10.08-.21-20.82-.79-32.14.04Z"/>
  <path class="cls-1" d="M433.79,363.82c-1.19-.01-2.63-1.67-2.62-2.32s1.48-2.23,2.27-2.24l33.19-.38c2.56-2.13,4.13-4.7,6.9-6.67,1.12-.8,4.12,2.21,3.26,3.29-2.55,3.23-5.55,5.22-7.66,8.64l-35.33-.32Z"/>
  <path class="cls-1" d="M232.42,341.31c-3.98.27-5.79,6.01-8.31,7.45-1.22.39-2.78-1.65-3.02-2.51-.09-.33,5.96-9.88,10.01-10.04,11.35-.44,22.3-.29,33.46-.03.76.02,2.28,1.73,2.27,2.38s-1.72,1.44-2.28,2.73c-10.08-.25-20.83-.75-32.14,0Z"/>
  <path class="cls-1" d="M229.79,363.82c-1.19-.01-2.63-1.67-2.62-2.32s1.49-2.25,2.26-2.26l33.67-.26c2.31-2.22,3.76-5.65,6.93-6.83,1.04-.39,3.55,2.54,2.81,3.39-2.73,3.11-5.54,5.23-7.73,8.59l-35.32-.32Z"/>
  <path class="cls-1" d="M637.79,363.82c-1.18-.01-2.64-1.67-2.62-2.32s1.49-2.25,2.26-2.26l33.67-.26c2.31-2.22,3.76-5.65,6.93-6.83,1.04-.39,3.55,2.54,2.81,3.39-2.73,3.11-5.54,5.23-7.73,8.59l-35.32-.32Z"/>
  <path class="cls-1" d="M575.48,348.64c-.02-1.16,1.61-2.51,2.43-4.07l7.28,7.02c.71.25,1.87-.61,3.21-.51,2.3.18,2.24-2.38-.04-2.14-1.95.2-3.79.3-4.7-.75-.61-.7-2.1-2.62-.9-3.42,2.44-1.08,8.25-1.76,10.24.06,3.1,2.85.73,8.09.61,11.3-14.26-.73-8.71,2.37-18.12-7.49Z"/>
  <path class="cls-1" d="M323.51,355.92c-6.1-4.5-3.45-9.01-11.97-6.25,1.51,3.67,7.3-.43,8.53,6.27l-12.12-.08c-.88-3.99.11-7.3.48-11.5,15.06-1.46,9.29.31,18.37,7.76-.89,1.91-2.21,2.81-3.29,3.8Z"/>
  <path class="cls-1" d="M167.47,348.64c-.03-1.14,1.65-2.59,2.39-4,3.21,2.1,4.48,5.22,7.38,6.71,1.7.87,5.26-.02,4.77-2.18-1.78-.35-4.37.1-5.74-.48-1.06-.45-2.61-2.89-1.55-3.88,2.38-1.18,8.35-1.77,10.26,0,3.11,2.89.75,8.08.62,11.32-14.28-.74-8.69,2.38-18.13-7.5Z"/>
  <path class="cls-1" d="M678.56,349.78c-1.25-1.31.2-4.67,1.44-4.78l7.23,6.4c1.31.35,4.14-.03,5.23-1.55-1.88-1.86-4.1-.12-5.6-1.09-1.12-.73-2.68-2.49-2.74-4.44,3.95-.5,7.57-.69,11.5.12.75,4.02.35,7.37.32,11.6-14.26-.43-9.47,2.04-17.38-6.26Z"/>
  <path class="cls-1" d="M416.57,348.79c-3.04-.3-3.55,2.07-1.06,2.5,3.25.02,6.22,1.1,6.61,4.68l-11.94-.04c.18-3.61-2.08-8.43.79-11.13,10.92-3.15,10.89,1.1,16.68,6.48,1.22,1.13.02,2.7-.6,3.26-3.28,2.95-5.39-5.24-10.47-5.75Z"/>
  <path class="cls-1" d="M527.6,355.64c-4.02-1.1-5.08-10.96-12.22-5.16,4.2,1.22,8.3.7,8.83,5.88l-12.22-.35c.21-3.84-.53-7.2.32-10.75.16-.66,9.14-5.02,15.47,4.02.74,1.06,2.4,2.09,2.29,3.13-.1.98-1.24,3.1-2.48,3.23Z"/>
  <path class="cls-1" d="M221.99,355.37c-1.97,1.19-5.37-5.98-6.69-6.23-2.28-.44-4.37-.64-5.39,1.76,3.57.2,6.69.81,8.55,4.71-4.27.84-7.95.28-12.47.35.44-3.75-.97-8.04.74-11.26,12.33-2.87,10.51,1.31,18.32,7.7-1.36,1.41-1.93,2.29-3.05,2.97Z"/>
  <path class="cls-1" d="M119.5,355.92c-5.5-3.96-4.15-9.41-11.49-6.16,1.13,4.22,4.54-1.89,8.31,5.85-4.15.8-7.82.27-12.34.34.43-3.53-.87-7.46.53-10.91,12.69-3.9,11.13,1.38,18.28,7.07-.89,1.94-2.2,2.82-3.29,3.81Z"/>
  <path class="cls-1" d="M277.04,355.71c-1.92-.52-10.38-7.64-5.02-10.8l7.2,6.49c1.33.24,4.18,0,5.23-1.53-.65-2.52-7.09,2.08-7.97-5.17,3.27-1.31,7.65-.89,11.1-.24.84,4.05.36,7.36.37,11.58-3.73-.44-7.25.67-10.92-.33Z"/>
  <path class="cls-1" d="M625.43,351.1c-1.29-1.61-2.6-2.16-3.89-2.22-1.56-.07-2.88.19-3.6,1.99,3.47.55,6.65.85,8.57,4.7-4.31.9-8.01.29-12.54.38.53-3.47-.99-7.59.61-10.82,10.99-4.23,11.33,1.32,18.47,7.22-1.22,1.4-2.37,2.5-3.66,3.7l-3.97-4.95Z"/>
  <path class="cls-1" d="M474.64,349.85c-1.41-1.63.16-4.08,1.27-5.19l6.9,6.53c1.4,1.33,6.04.27,4.89-1.82-.62-1.05-4.32.35-5.26-.85-.7-.9-2.47-2.29-1.97-3.83,3.33-1.3,7.63-.89,11.1-.23.83,4.04.37,7.35.36,11.59-12.49-.59-9.8,2.47-17.3-6.2Z"/>
  <path class="cls-1" d="M379.04,355.71c-1.91-.52-10.41-7.65-4.99-10.83,2.8,1.82,5.01,5.41,7.98,6.74,1.22.12,4.33-.27,4.05-2.35-1.61-.66-4.42.33-5.6-.77-.84-.79-2.45-2.3-1.97-3.82,3.27-1.25,7.63-.88,11.09-.22.83,4.05.36,7.36.37,11.58-3.73-.44-7.25.67-10.92-.33Z"/>
  <path class="cls-1" d="M260.21,355.75c-18.94,3-12.07-7.05-19.26-6.72-1.53.07-3.62-.02-4.83-.46s-3.07-3.02-1.86-4.21c12.03-1.14,10.02-.98,17.4,7.33,3.59-.69,7.5-1.08,8.54,4.06Z"/>
  <path class="cls-1" d="M668.03,356.09c-3.76-.76-8.29,1.07-11.7-.69-2.63-1.36-3.32-6.49-7.36-6.39-1.65.04-3.49.12-4.88-.47-1.17-.49-2.94-2.79-1.87-4.29,16.22-2.75,12.42,6.61,19.48,7.21,2.83.24,5.89-.69,6.33,4.63Z"/>
  <path class="cls-1" d="M158.39,355.71c-4.45.59-8.14.32-12.17.14-7.72-11.2-6.95-4.99-11.8-7.21-1.36-.62-2.77-2.11-2.39-3.09.65-1.66,2.43-1.38,3.85-1.57,12.29-1.65,8.72,7.71,16.37,7.51,2.46-.06,5.64.35,6.13,4.23Z"/>
  <path class="cls-1" d="M362.29,355.63c-19.49,3.3-12.32-7.13-19.33-6.62-3.18.23-6.9.07-7.23-4.49,14.88-2.81,12.87,3.43,16.91,5.93,2.98,1.84,7.3-.41,9.64,5.18Z"/>
  <path class="cls-1" d="M464.25,355.63c-18.78,3.34-12.15-6.92-19.3-6.61-1.58.07-3.51.09-4.86-.48-1.17-.5-2.91-2.69-1.88-4.33,3.14-.08,7.98-1.74,10.33.29l7.5,6.49c2.23,1.93,6.25-.19,8.21,4.64Z"/>
  <path class="cls-1" d="M566.59,355.32c-18.71,4.28-12.69-6.86-19.67-6.26-2.09.18-7.1-.01-6.61-3.43.8-2.62,7.55-1.97,10.22-1.15,3.33,1.03,4.37,5.71,6.94,6.95,2.93,1.16,6.94-1.92,9.12,3.89Z"/>
  <path class="cls-1" d="M468.07,348c.67,2.45,1.48,3.24,2.97,4.42-1.17,1.27-2.37,2.49-3.66,3.63-2.47-2.61-3.54-5.2-6.44-7.32-3.31,1.39-8.69-.59-8.45-3.94,12.92-2.67,10.03.12,15.59,3.21Z"/>
  <path class="cls-1" d="M449.87,355.82c-13.53.21-9.47,2.19-18.44-7.02-.51-1,1.46-3.92,2.58-3.82,11.76,11.18,7.94,4.66,12.26,6.15,1.51.52,2.12,1.63,3.6,4.69Z"/>
  <path class="cls-1" d="M671.58,355.98l-6.44-7.17c-4.03.88-7.55,0-9.16-3.94,15.24-3.4,11.37,1.83,19.13,7.39-.91,1.24-1.83,1.84-3.54,3.72Z"/>
  <path class="cls-1" d="M551.79,355.85c-14.14.15-8.98,2.1-18.49-7.01.04-1.42,1.35-3.31,2.71-4.05,2.96,1.58,4.49,5.85,7.72,6.45,2.97.56,6.52-1.1,8.06,4.6Z"/>
  <path class="cls-1" d="M253.9,343.95c8.77-1.14,12.03,9.39,12.18,8.57-.23,1.23-1.08,2.26-2.59,3.42l-6.36-7.14c-3.81.89-6.96.09-9.03-3.33.95-2.09,3.61-1.23,5.8-1.51Z"/>
  <path class="cls-1" d="M143.77,355.81c-11.94.23-10.45,2.28-18.28-7.38-.61-1.13,2.11-4.4,3.41-3.34,2.56,2.11,4.28,6.32,7.85,6.4,2.85.06,5.56-.68,7.03,4.32Z"/>
  <path class="cls-1" d="M365.28,355.78c-8.84-13.77-10.79-.9-15.13-11.39,14.3-1.38,9.14-.7,18.86,7.95-1.02,1.19-1.96,2.51-3.73,3.44Z"/>
  <path class="cls-1" d="M163.23,350.74c1.51,1.14.81,3.04-.17,3.8-3.89,3.02-4.91-6.55-10.03-5.46-2.72.58-7.09-1.83-6.45-4.21,12.64-3.58,11.96,2.34,16.66,5.87Z"/>
  <path class="cls-1" d="M653.9,355.8c-14.9.59-10.11,1-17.49-6.12-1.57-1.52-.7-3,0-3.77,3.09-3.33,6.61,5.88,9.52,5.75l4.65-.22c1.69-.08,2.13,2.3,3.32,4.35Z"/>
  <path class="cls-1" d="M245.85,356.06c-9.65-.45-11.98,2.45-18.53-8.3-.45-.74,1.95-2.97,2.78-2.68,2.67,1.37,4.67,4.73,7.27,6.72,3.81-.49,7.71-.29,8.48,4.26Z"/>
  <path class="cls-1" d="M564.54,344.54c-.24-.11,10.05,6.57,6.52,9.99-2.82,2.74-5.6-6.38-10.04-5.46-2.69.56-7.13-1.79-6.43-4.22,2.38-1.48,7.46-1.43,9.94-.32Z"/>
  <path class="cls-1" d="M347.85,356.05c-11.73-.65-9.94,2.59-17.47-6.47-1.12-1.35.45-3.82,1.56-4.96l7.34,7.14c3.79-.85,7.69-.18,8.57,4.29Z"/>
  <path class="cls-1" d="M708.37,347.54c-1.3-.31.5-2.71,1.38-3.19-1.55-1.76-2.98-3.78-.65-6.03,2.22,3.63,4.43,5.78,7.56,8.95-2.72,1.21-4.98,1.05-8.29.27Z"/>
  <path class="cls-1" d="M90.55,355.64c.74,1.78,2.95,3.8.32,6.04-2.15-3.66-4.43-5.73-7.51-9,3.02-1.18,5.75-.95,8.43-.32,1.26.38-.98,2.6-1.24,3.28Z"/>
  <path class="cls-1" d="M716.55,350.59c-3.07,3.43-4.38,6.18-7.31,8.6-.94-3.17-.66-5.68-.97-8.62,2.93-.69,4.87-1.21,8.28.02Z"/>
  <path class="cls-1" d="M91.9,349.34c-3.27.94-5.57,1.24-8.41,0,3.02-3.29,4.36-6.16,7.25-8.51,1.05,2.94.45,5.18,1.17,8.5Z"/>
</svg>